<svg xmlns="http://www.w3.org/2000/svg" width="1120" height="568" viewBox="0 0 1120 568">
  <rect width="1120" height="568" fill="#0f1e35"/>
  <g font-family="DejaVu Sans">
    <!-- you drive it -->
    
      <g transform="translate(312,34)">
        <rect width="148" height="48" rx="8" fill="#122443" stroke="#1c3358"/>
        <text x="74" y="31" font-size="19" font-weight="bold" fill="#eef3ff" text-anchor="middle">CLI</text>
      </g>
      <g transform="translate(484,34)">
        <rect width="148" height="48" rx="8" fill="#122443" stroke="#1c3358"/>
        <text x="74" y="31" font-size="19" font-weight="bold" fill="#eef3ff" text-anchor="middle">TUI</text>
      </g>
      <g transform="translate(656,34)">
        <rect width="148" height="48" rx="8" fill="#122443" stroke="#1c3358"/>
        <text x="74" y="31" font-size="19" font-weight="bold" fill="#eef3ff" text-anchor="middle">your app</text>
      </g>
    <text x="1080" y="64" font-size="16" fill="#94a3b8" text-anchor="end">you drive it</text>
    <!-- link down -->
    <line x1="560" y1="82" x2="560" y2="172" stroke="#9ec1ff" stroke-width="2"/>
    <path d="M 553 162 L 560 174 L 567 162 Z" fill="#9ec1ff"/>
    <text x="582" y="132" font-size="16" fill="#94a3b8">websocket · HTTP API — over Tailscale</text>
    <!-- host -->
    <rect x="40" y="180" width="1040" height="362" rx="14" fill="#122443" stroke="#1c3358" stroke-width="1.5"/>
    <text x="64" y="222" font-size="22" font-weight="bold" fill="#9ec1ff">Dejima host</text>
    <text x="214" y="222" font-size="19" fill="#94a3b8">— Mac mini / VPS / cloud VM</text>
    
  <g transform="translate(80,250)">
    <rect width="416" height="270" rx="10" fill="#0a172d" stroke="#1c3358"/>
    <text x="24" y="40" font-size="20" font-weight="bold" fill="#eef3ff">island: web</text>
    
  <g transform="translate(22,62)">
    <rect width="372" height="46" rx="7" fill="#0f1e35" stroke="#1c3358"/>
    <text x="18" y="29" font-family="DejaVu Sans Mono" font-size="17" fill="#94a3b8">a1</text>
    <text x="62" y="29" font-family="DejaVu Sans Mono" font-size="17" fill="#9ec1ff">claude-code</text>
  </g>
  <g transform="translate(22,120)">
    <rect width="372" height="46" rx="7" fill="#0f1e35" stroke="#1c3358"/>
    <text x="18" y="29" font-family="DejaVu Sans Mono" font-size="17" fill="#94a3b8">a2</text>
    <text x="62" y="29" font-family="DejaVu Sans Mono" font-size="17" fill="#9ec1ff">openclaw</text>
  </g>
  <g transform="translate(22,178)">
    <rect width="372" height="46" rx="7" fill="#0f1e35" stroke="#1c3358"/>
    <text x="18" y="29" font-family="DejaVu Sans Mono" font-size="17" fill="#94a3b8">a3</text>
    <text x="62" y="29" font-family="DejaVu Sans Mono" font-size="17" fill="#9ec1ff">shell</text>
  </g>
  </g>
    
  <g transform="translate(624,250)">
    <rect width="416" height="270" rx="10" fill="#0a172d" stroke="#1c3358"/>
    <text x="24" y="40" font-size="20" font-weight="bold" fill="#eef3ff">island: api</text>
    
  <g transform="translate(22,62)">
    <rect width="372" height="46" rx="7" fill="#0f1e35" stroke="#1c3358"/>
    <text x="18" y="29" font-family="DejaVu Sans Mono" font-size="17" fill="#94a3b8">a1</text>
    <text x="62" y="29" font-family="DejaVu Sans Mono" font-size="17" fill="#9ec1ff">codex</text>
  </g>
  <g transform="translate(22,120)">
    <rect width="372" height="46" rx="7" fill="#0f1e35" stroke="#1c3358"/>
    <text x="18" y="29" font-family="DejaVu Sans Mono" font-size="17" fill="#94a3b8">a2</text>
    <text x="62" y="29" font-family="DejaVu Sans Mono" font-size="17" fill="#9ec1ff">letta</text>
  </g>
  <g transform="translate(22,178)">
    <rect width="372" height="46" rx="7" fill="#0f1e35" stroke="#1c3358"/>
    <text x="18" y="29" font-family="DejaVu Sans Mono" font-size="17" fill="#94a3b8">a3</text>
    <text x="62" y="29" font-family="DejaVu Sans Mono" font-size="17" fill="#9ec1ff">headless</text>
  </g>
  </g>
  </g>
</svg>